#!OML:ASF E:\Steps\Project 1\Capture day 1\Session 2\Subject.ASF
:FULLY-SPECIFIED
:DEGREES
242
root 8.84189 16.0477 27.7963 -151.562 2.66756 175.762
lowerback -26.5948 0.640177 -8.07273
upperback -1.15718 4.31092 -2.76557
thorax 13.2568 1.82204 3.10652
lowerneck -4.00396 -2.63026 -0.705213
upperneck 16.0065 -4.69837 2.72887
head 5.56361 -2.43745 0.65989
rclavicle 3.97569e-016 -2.10712e-014
rhumerus -33.4243 -12.482 -82.496
rradius 38.7055
rwrist -4.33509
rhand -7.04971 -51.1471
rfingers 7.12502
rthumb 18.823 -80.2564
lclavicle 3.97569e-016 -2.10712e-014
lhumerus -36.2944 18.3743 69.9722
lradius 15.5517
lwrist -16.6874
lhand -20.2373 -10.8761
lfingers 7.12502
lthumb 6.11071 19.0157
rfemur -16.4358 8.20416 17.7931
rtibia 17.1992
rfoot -27.7014 -12.7127
rtoes -39.4697
lfemur -45.2369 -11.4801 -19.5676
ltibia 22.4068
lfoot -5.71663 5.38571
ltoes -34.1727
243
root 8.81944 16.0612 27.6991 -151.639 2.61533 175.857
lowerback -26.5149 0.633188 -8.04845
upperback -1.19281 4.27567 -2.72148
thorax 13.1719 1.81093 3.12617
lowerneck -3.87472 -2.56981 -0.92358
upperneck 15.9457 -4.63874 2.99653
head 5.53213 -2.40733 0.785524
rclavicle 2.78299e-015 1.55052e-014
rhumerus -33.7432 -12.8917 -82.1366
rradius 38.5653
rwrist -4.21873
rhand -6.90504 -50.8433
rfingers 7.12502
rthumb 18.9621 -79.939
lclavicle 2.78299e-015 1.55052e-014
lhumerus -36.2859 18.1067 70.2149
lradius 15.6325
lwrist -16.1927
lhand -20.332 -10.5464
lfingers 7.12502
lthumb 6.01932 19.3481
rfemur -16.7997 7.71538 17.9283
rtibia 18.7383
rfoot -27.0895 -12.5693
rtoes -41.1268
lfemur -44.7957 -11.3584 -19.732
ltibia 22.541
lfoot -5.86955 5.25919
ltoes -35.3121
244
root 8.79498 16.0718 27.6019 -151.607 2.65268 175.958
lowerback -26.6613 0.651414 -8.01081
upperback -1.19226 4.30332 -2.70492
thorax 13.2508 1.82114 3.14085
lowerneck -3.85374 -2.47671 -1.1471
upperneck 15.7972 -4.52161 3.31302
head 5.49135 -2.34016 0.929888
rclavicle 4.91992e-014 -6.32135e-014
rhumerus -33.9693 -13.2028 -81.8794
rradius 38.4912
rwrist -4.3063
rhand -6.81643 -51.0112
rfingers 7.12502
rthumb 19.0474 -80.0986
lclavicle 4.91992e-014 -6.32135e-014
lhumerus -36.1937 18.3769 70.2037
lradius 15.5872
lwrist -16.3555
lhand -20.482 -10.5686
lfingers 7.12502
lthumb 5.8745 19.3299
rfemur -17.3683 7.28759 17.9603
rtibia 20.2105
rfoot -26.3057 -12.4613
rtoes -42.6801
lfemur -44.4134 -11.2016 -19.8667
ltibia 22.5208
lfoot -6.09902 5.14714
ltoes -36.1267
245
root 8.77093 16.0878 27.5076 -151.793 2.65697 176.075
lowerback -26.5709 0.684842 -7.98188
upperback -1.12642 4.3112 -2.66204
thorax 13.2758 1.81554 3.17198
lowerneck -3.92557 -2.32588 -1.13661
upperneck 15.6127 -4.26745 3.23003
head 5.43798 -2.21227 0.918726
rclavicle -2.0276e-014 3.37934e-014
rhumerus -34.0614 -13.618 -81.5909
rradius 38.2016
rwrist -4.20516
rhand -7.18076 -51.5593
rfingers 7.12502
rthumb 18.697 -80.6807
lclavicle -2.0276e-014 3.37934e-014
lhumerus -36.099 18.5282 70.2799
lradius 15.6337
lwrist -16.4599
lhand -20.2086 -10.9741
lfingers 7.12502
lthumb 6.13843 18.917
rfemur -17.8312 6.90478 18.0651
rtibia 21.9722
rfoot -25.8091 -11.9295
rtoes -42.814
lfemur -43.6786 -10.9284 -20.1152
ltibia 22.324
lfoot -6.391 4.831
ltoes -36.6446
246
root 8.74481 16.0987 27.4161 -151.775 2.59933 176.284
lowerback -26.6362 0.695797 -7.84085
upperback -1.16455 4.2747 -2.58366
thorax 13.272 1.80515 3.17129
lowerneck -4.03883 -2.91917 -0.546113
upperneck 16.8277 -5.29683 3.01801
head 5.84276 -2.72693 0.674335
rclavicle 2.127e-014 -3.93594e-014
rhumerus -34.2417 -14.0337 -81.2063
rradius 37.8347
rwrist -4.06881
rhand -7.46598 -51.8514
rfingers 7.12502
rthumb 18.4226 -80.9991
lclavicle 2.127e-014 -3.93594e-014
lhumerus -36.1297 18.4352 70.4403
lradius 15.7803
lwrist -16.3478
lhand -20.0528 -11.152
lfingers 7.12502
lthumb 6.28881 18.7347
rfemur -18.7516 6.34686 18.2601
rtibia 24.2471
rfoot -25.2846 -11.766
rtoes -43.2878
lfemur -43.2406 -10.5094 -20.2911
ltibia 22.2394
lfoot -6.56869 4.39569
ltoes -36.4792
247
root 8.71821 16.1092 27.3227 -151.746 2.51293 176.482
lowerback -26.7403 0.665985 -7.68348
upperback -1.17227 4.18314 -2.50123
thorax 13.3317 1.76568 3.14833
lowerneck -4.11604 -3.07735 -0.423933
upperneck 17.2079 -5.59166 3.02355
head 5.97903 -2.87213 0.629645
rclavicle 6.06293e-015 8.34896e-015
rhumerus -34.4438 -14.2528 -80.9081
rradius 37.6797
rwrist -4.09299
rhand -7.21722 -51.7619
rfingers 7.12502
rthumb 18.6619 -80.8867
lclavicle 6.06293e-015 8.34896e-015
lhumerus -36.0709 18.2942 70.683
lradius 15.9259
lwrist -15.9524
lhand -20.1565 -11.057
lfingers 7.12502
lthumb 6.18869 18.8326
rfemur -19.7045 5.78664 18.374
rtibia 26.5076
rfoot -24.6395 -10.6829
rtoes -41.3317
lfemur -42.8148 -10.0917 -20.4675
ltibia 22.1458
lfoot -6.71532 4.02082
ltoes -36.7394
248
root 8.69164 16.1234 27.2293 -151.952 2.53069 176.628
lowerback -26.5614 0.681798 -7.6228
upperback -1.10265 4.14594 -2.45578
thorax 13.319 1.74242 3.1439
lowerneck -4.44849 -3.06975 -0.16866
upperneck 17.3365 -5.56295 2.77515
head 6.06303 -2.85029 0.503303
rclavicle -1.99779e-014 7.95139e-015
rhumerus -34.6008 -14.5176 -80.6833
rradius 37.5736
rwrist -4.11884
rhand -7.38876 -51.8085
rfingers 7.12502
rthumb 18.4969 -80.9491
lclavicle -1.99779e-014 7.95139e-015
lhumerus -35.8518 17.609 71.2549
lradius 16.1766
lwrist -14.9884
lhand -20.0454 -10.7566
lfingers 7.12502
lthumb 6.296 19.1299
rfemur -20.5257 5.42204 18.4036
rtibia 28.9053
rfoot -23.8245 -9.69506
rtoes -38.7747
lfemur -42.0459 -9.87673 -20.5759
ltibia 21.8352
lfoot -7.12164 3.9044
ltoes -35.9071
249
root 8.66934 16.1389 27.1402 -152.181 2.65098 176.742
lowerback -26.2867 0.703075 -7.69252
upperback -1.09966 4.14731 -2.40591
thorax 13.1623 1.7403 3.22693
lowerneck -4.64029 -3.17256 0.108292
upperneck 17.4763 -5.71009 2.56172
head 6.12952 -2.91684 0.374821
rclavicle -3.38928e-014 4.8901e-014
rhumerus -34.8426 -14.7378 -80.3942
rradius 37.3494
rwrist -4.22898
rhand -7.70129 -51.5501
rfingers 7.12502
rthumb 18.1962 -80.719
lclavicle -3.38928e-014 4.8901e-014
lhumerus -35.8263 16.7693 71.8503
lradius 16.5968
lwrist -14.0814
lhand -19.8764 -10.3272
lfingers 7.12502
lthumb 6.45917 19.5543
rfemur -21.3677 4.85758 18.4776
rtibia 31.2882
rfoot -22.6395 -9.05775
rtoes -38.67
lfemur -41.2104 -9.5464 -20.7768
ltibia 21.4783
lfoot -7.1118 3.70311
ltoes -39.4245
250
root 8.65393 16.1506 27.056 -152.117 2.3461 176.872
lowerback -26.2715 0.509466 -7.70706
upperback -1.18612 3.87522 -2.25474
thorax 13.066 1.61923 3.30967
lowerneck -4.49566 -3.19139 -0.00252131
upperneck 17.4631 -5.76971 2.74588
head 6.10973 -2.94709 0.449653
rclavicle -6.55989e-015 -3.26007e-014
rhumerus -35.1012 -14.7593 -80.101
rradius 37.1625
rwrist -4.23045
rhand -7.52814 -51.0057
rfingers 7.12502
rthumb 18.3628 -80.159
lclavicle -6.55989e-015 -3.26007e-014
lhumerus -35.9525 16.1816 72.3083
lradius 17.0199
lwrist -13.1875
lhand -19.6441 -10.7579
lfingers 7.12502
lthumb 6.68335 19.1167
rfemur -22.3703 3.84175 18.7013
rtibia 33.353
rfoot -21.1156 -8.45509
rtoes -38.5964
lfemur -40.8188 -9.41056 -20.865
ltibia 21.317
lfoot -7.19099 3.30343
ltoes -39.042
